<svg data-v-423bf9ae="" xmlns="http://www.w3.org/2000/svg" viewBox="0 0 673 90" class="iconLeftSlogan"><!----><!----><!----><g data-v-423bf9ae="" id="4d83fc6c-9f51-468e-8cc8-dd61da2434aa" fill="white" transform="matrix(4.341534104553623,0,0,4.341534104553623,105.48480355537913,-0.043415572292531124)"><path d="M1.04 10.50L7.80 10.50L7.80 8.71L3.28 8.71L3.28 0.71L1.04 0.71ZM14.15 6.75C14.15 8.41 13.65 9.18 12.59 9.18C11.63 9.18 11.06 8.33 11.06 6.75C11.06 5.17 11.56 4.38 12.63 4.38C13.59 4.38 14.15 5.18 14.15 6.75ZM16.38 6.73C16.38 4.45 15.29 2.86 12.61 2.86C10.05 2.86 8.82 4.47 8.82 6.73C8.82 9.09 10.07 10.64 12.57 10.64C15.13 10.64 16.38 9.10 16.38 6.73ZM22.64 10.50L24.86 10.50L24.86 5.53C24.86 4.13 24.33 2.86 22.44 2.86C21.27 2.86 20.43 3.43 20.05 4.54C20.02 3.95 19.95 3.21 19.94 3.00L17.84 3.00C17.85 3.42 17.88 3.96 17.88 4.73L17.88 10.50L20.08 10.50L20.08 6.52C20.08 5.29 20.58 4.52 21.48 4.52C22.34 4.52 22.64 5.05 22.64 6.10ZM31.43 10.50L33.66 10.50L33.66 5.53C33.66 4.13 33.12 2.86 31.23 2.86C30.06 2.86 29.22 3.43 28.84 4.54C28.81 3.95 28.74 3.21 28.73 3.00L26.63 3.00C26.64 3.42 26.67 3.96 26.67 4.73L26.67 10.50L28.87 10.50L28.87 6.52C28.87 5.29 29.37 4.52 30.27 4.52C31.14 4.52 31.43 5.05 31.43 6.10ZM42.53 9.10L42.01 9.10C41.61 9.10 41.48 8.90 41.48 8.55L41.48 5.60C41.48 3.81 40.53 2.86 38.42 2.86C36.33 2.86 35.32 3.79 35.20 5.14L37.21 5.26C37.21 4.56 37.59 4.17 38.29 4.17C38.96 4.17 39.35 4.49 39.35 5.35L39.35 5.98L38.61 5.98C36.15 5.98 34.90 6.65 34.90 8.40C34.90 9.53 35.66 10.64 37.32 10.64C38.35 10.64 39.19 10.21 39.54 9.25C39.55 10.16 40.29 10.64 41.36 10.64C41.83 10.64 42.06 10.63 42.53 10.58ZM38.08 9.24C37.37 9.24 37.03 8.75 37.03 8.20C37.03 7.36 37.69 7.10 38.40 7.10L39.35 7.10L39.35 7.66C39.35 8.68 38.82 9.24 38.08 9.24ZM48.29 4.75L48.29 2.88C48.12 2.86 47.91 2.86 47.81 2.86C46.69 2.86 46.06 3.50 45.85 4.35C45.84 3.92 45.78 3.33 45.75 3.00L43.60 3.00C43.62 3.16 43.67 4.30 43.67 4.77L43.67 10.50L45.88 10.50L45.88 6.61C45.88 5.49 46.40 4.70 47.54 4.70C47.78 4.70 47.98 4.70 48.29 4.75ZM49.62 10.50L51.79 10.50L51.79 3.00L49.62 3.00ZM49.62 2.06L51.79 2.06L51.79 0.01L49.62 0.01ZM55.93 10.49C57.20 10.49 57.99 9.97 58.34 9.09C58.32 9.23 58.32 9.41 58.32 9.52L58.32 10.61C58.32 11.98 57.76 12.45 56.87 12.45C56.06 12.45 55.68 12.03 55.57 11.42L53.41 11.63C53.61 12.82 54.50 13.83 56.80 13.83C59.23 13.83 60.52 12.77 60.52 10.56L60.52 4.77C60.52 4.21 60.55 3.23 60.58 3.00L58.49 3.00C58.46 3.23 58.41 3.81 58.38 4.27C58.04 3.35 57.15 2.86 56.07 2.86C54.12 2.86 53.14 4.24 53.14 6.65C53.14 9.03 54.01 10.49 55.93 10.49ZM58.34 6.62C58.34 8.41 57.58 8.92 56.84 8.92C55.87 8.92 55.43 8.16 55.43 6.65C55.43 5.01 55.97 4.40 56.85 4.40C57.61 4.40 58.34 4.93 58.34 6.62ZM67.27 6.75C67.27 8.41 66.77 9.18 65.70 9.18C64.75 9.18 64.18 8.33 64.18 6.75C64.18 5.17 64.68 4.38 65.74 4.38C66.71 4.38 67.27 5.18 67.27 6.75ZM69.50 6.73C69.50 4.45 68.40 2.86 65.73 2.86C63.17 2.86 61.94 4.47 61.94 6.73C61.94 9.09 63.18 10.64 65.69 10.64C68.25 10.64 69.50 9.10 69.50 6.73ZM79.51 10.64C82.21 10.64 83.36 9.20 83.90 7.78L81.91 7.08C81.63 7.91 81.02 8.88 79.49 8.88C77.49 8.88 76.79 7.49 76.79 5.57C76.79 3.61 77.53 2.32 79.45 2.32C80.78 2.32 81.58 3.09 81.82 3.89L83.76 3.37C83.29 1.81 82.08 0.57 79.39 0.57C76.02 0.57 74.52 2.51 74.52 5.57C74.52 8.51 76.05 10.64 79.51 10.64ZM93.00 3.86C93.00 2.00 91.84 0.71 89.28 0.71L85.29 0.71L85.29 10.50L87.53 10.50L87.53 7.17L89.38 7.17C91.90 7.17 93.00 5.54 93.00 3.86ZM90.73 3.89C90.73 4.80 90.22 5.40 89.10 5.40L87.53 5.40L87.53 2.45L89.04 2.45C90.16 2.45 90.73 2.95 90.73 3.89ZM95.75 8.09L99.22 8.09L99.97 10.50L102.21 10.50L98.78 0.71L96.12 0.71L92.79 10.50L95.03 10.50ZM97.86 3.71L98.70 6.43L96.24 6.43L97.05 3.71L97.45 2.37ZM115.22 3.86C115.22 2.00 114.06 0.71 111.50 0.71L107.51 0.71L107.51 10.50L109.75 10.50L109.75 7.17L111.59 7.17C114.11 7.17 115.22 5.54 115.22 3.86ZM112.95 3.89C112.95 4.80 112.43 5.40 111.31 5.40L109.75 5.40L109.75 2.45L111.26 2.45C112.38 2.45 112.95 2.95 112.95 3.89ZM114.80 10.50L116.98 10.50L116.98 8.22L114.80 8.22ZM122.63 10.64C125.33 10.64 126.48 9.20 127.02 7.78L125.03 7.08C124.75 7.91 124.14 8.88 122.61 8.88C120.61 8.88 119.91 7.49 119.91 5.57C119.91 3.61 120.65 2.32 122.57 2.32C123.90 2.32 124.70 3.09 124.94 3.89L126.88 3.37C126.41 1.81 125.20 0.57 122.51 0.57C119.14 0.57 117.64 2.51 117.64 5.57C117.64 8.51 119.17 10.64 122.63 10.64ZM128.31 10.50L130.49 10.50L130.49 8.22L128.31 8.22Z"></path></g><!----><g data-v-423bf9ae="" id="f00fe934-881b-4cba-ad5b-cc1fffff4c19" transform="matrix(11.25,0,0,11.25,0.9999951124191284,0)" stroke="none" fill="white"><path clip-rule="evenodd" d="M8 5.498A2.501 2.501 0 0 1 5.5 8h-5a.5.5 0 0 1 0-1c.275 0 .5-.225.5-.502V1.5A.5.5 0 0 0 .5 1a.5.5 0 0 1 0-1H5a2 2 0 0 1 2 2c0 .472-.171.9-.443 1.242A2.497 2.497 0 0 1 8 5.498zM4 1h-.75a.249.249 0 0 0-.25.25v1.5c0 .137.111.25.25.25H4a1 1 0 1 0 0-2zm.5 3H3.25a.249.249 0 0 0-.25.25v2.5c0 .137.111.25.25.25H4.5a1.501 1.501 0 0 0 0-3z"></path></g><!----><g data-v-423bf9ae="" id="180ba258-e51b-481e-8744-b002d6190c73" fill="white" transform="matrix(2.1803467321022687,0,0,2.1803467321022687,108.77901574774762,61.0465627375156)"><path d="M5.54 10.64C8.25 10.64 9.39 9.20 9.94 7.78L7.95 7.08C7.67 7.91 7.06 8.88 5.53 8.88C3.53 8.88 2.83 7.49 2.83 5.57C2.83 3.61 3.57 2.32 5.49 2.32C6.82 2.32 7.62 3.09 7.85 3.89L9.80 3.37C9.32 1.81 8.12 0.57 5.43 0.57C2.06 0.57 0.56 2.51 0.56 5.57C0.56 8.51 2.09 10.64 5.54 10.64ZM13.47 3.15L13.47-0.48L11.24-0.48L11.24 10.50L13.47 10.50L13.47 6.51C13.47 5.36 14 4.54 14.87 4.54C15.72 4.54 16.03 5.22 16.03 6.29L16.03 10.50L18.26 10.50L18.26 5.70C18.26 3.99 17.51 2.86 15.82 2.86C14.80 2.86 13.82 3.35 13.41 4.63C13.44 4.24 13.47 3.68 13.47 3.15ZM27.12 9.10L26.60 9.10C26.19 9.10 26.07 8.90 26.07 8.55L26.07 5.60C26.07 3.81 25.12 2.86 23.00 2.86C20.92 2.86 19.91 3.79 19.78 5.14L21.80 5.26C21.80 4.56 22.18 4.17 22.88 4.17C23.55 4.17 23.94 4.49 23.94 5.35L23.94 5.98L23.20 5.98C20.73 5.98 19.49 6.65 19.49 8.40C19.49 9.53 20.24 10.64 21.91 10.64C22.93 10.64 23.77 10.21 24.12 9.25C24.14 10.16 24.88 10.64 25.94 10.64C26.42 10.64 26.64 10.63 27.12 10.58ZM22.67 9.24C21.95 9.24 21.62 8.75 21.62 8.20C21.62 7.36 22.27 7.10 22.99 7.10L23.94 7.10L23.94 7.66C23.94 8.68 23.41 9.24 22.67 9.24ZM32.87 4.75L32.87 2.88C32.70 2.86 32.49 2.86 32.40 2.86C31.28 2.86 30.65 3.50 30.44 4.35C30.42 3.92 30.37 3.33 30.34 3.00L28.18 3.00C28.21 3.16 28.25 4.30 28.25 4.77L28.25 10.50L30.46 10.50L30.46 6.61C30.46 5.49 30.98 4.70 32.13 4.70C32.37 4.70 32.56 4.70 32.87 4.75ZM33.43 4.58L34.43 4.58L34.43 8.51C34.43 9.90 35.14 10.64 36.41 10.64C37.20 10.64 37.63 10.58 38.08 10.56L38.08 8.81L37.38 8.81C36.81 8.81 36.62 8.64 36.62 8.11L36.62 4.58L38.05 4.58L38.05 3.00L36.62 3.00L36.62 0.70L34.43 0.70L34.43 3.00L33.43 3.00ZM42.83 10.64C45.14 10.64 45.86 9.55 46.14 8.33L44.07 8.20C43.95 8.93 43.58 9.24 42.90 9.24C41.85 9.24 41.51 8.30 41.51 7.35L41.51 7.15L46.26 7.15C46.26 7.15 46.28 6.83 46.28 6.50C46.28 4.41 45.43 2.86 42.84 2.86C40.84 2.86 39.19 3.78 39.19 6.71C39.19 9.35 40.49 10.64 42.83 10.64ZM42.80 4.17C43.55 4.17 44.03 4.56 44.03 5.87L44.03 5.89L41.51 5.89C41.55 4.56 42.08 4.17 42.80 4.17ZM52.39 4.75L52.39 2.88C52.22 2.86 52.01 2.86 51.91 2.86C50.79 2.86 50.16 3.50 49.95 4.35C49.94 3.92 49.88 3.33 49.85 3.00L47.70 3.00C47.73 3.16 47.77 4.30 47.77 4.77L47.77 10.50L49.98 10.50L49.98 6.61C49.98 5.49 50.50 4.70 51.65 4.70C51.88 4.70 52.08 4.70 52.39 4.75ZM56.71 10.64C59.02 10.64 59.75 9.55 60.03 8.33L57.96 8.20C57.83 8.93 57.47 9.24 56.78 9.24C55.73 9.24 55.40 8.30 55.40 7.35L55.40 7.15L60.14 7.15C60.14 7.15 60.17 6.83 60.17 6.50C60.17 4.41 59.32 2.86 56.73 2.86C54.73 2.86 53.07 3.78 53.07 6.71C53.07 9.35 54.38 10.64 56.71 10.64ZM56.69 4.17C57.44 4.17 57.92 4.56 57.92 5.87L57.92 5.89L55.40 5.89C55.44 4.56 55.97 4.17 56.69 4.17ZM63.90 10.64C65.28 10.64 66.09 9.98 66.36 9.14C66.36 9.56 66.40 10.12 66.46 10.50L68.59 10.50C68.54 9.87 68.53 9.24 68.53 8.85L68.53-0.48L66.35-0.48L66.35 3.32C66.35 3.58 66.36 3.92 66.37 4.21C66.09 3.39 65.30 2.86 64.11 2.86C62.16 2.86 61.18 4.35 61.18 6.72C61.18 8.86 61.88 10.64 63.90 10.64ZM64.86 9.13C63.91 9.13 63.46 8.32 63.46 6.69C63.46 5.05 63.95 4.35 64.88 4.35C65.59 4.35 66.37 4.82 66.37 6.66C66.37 8.61 65.58 9.13 64.86 9.13ZM82.12 3.86C82.12 2.00 80.96 0.71 78.40 0.71L74.41 0.71L74.41 10.50L76.65 10.50L76.65 7.17L78.50 7.17C81.02 7.17 82.12 5.54 82.12 3.86ZM79.86 3.89C79.86 4.80 79.34 5.40 78.22 5.40L76.65 5.40L76.65 2.45L78.16 2.45C79.28 2.45 79.86 2.95 79.86 3.89ZM85.78 3.00L83.57 3.00L83.57 8.01C83.57 9.35 84.14 10.64 85.99 10.64C87.02 10.64 87.91 10.22 88.40 8.96C88.40 9.31 88.48 10.36 88.49 10.50L90.62 10.50C90.59 10.33 90.57 9.27 90.57 8.81L90.57 3.00L88.34 3.00L88.34 7.08C88.34 8.27 87.81 8.97 86.94 8.97C86.06 8.97 85.78 8.46 85.78 7.41ZM99.89 6.71C99.89 4.38 99.02 2.86 96.99 2.86C95.93 2.86 95.00 3.29 94.70 4.35C94.71 4.21 94.72 4.02 94.72 3.85L94.72-0.48L92.54-0.48L92.54 8.74C92.54 9.18 92.53 9.91 92.48 10.50L94.60 10.50C94.63 10.12 94.68 9.66 94.70 9.21C95.00 10.14 96.00 10.64 96.99 10.64C99.01 10.64 99.89 9.03 99.89 6.71ZM97.61 6.73C97.61 8.37 97.12 9.13 96.19 9.13C95.52 9.13 94.70 8.68 94.70 6.76C94.70 4.80 95.54 4.40 96.19 4.40C97.15 4.40 97.61 5.11 97.61 6.73ZM101.35 10.50L103.53 10.50L103.53-0.48L101.35-0.48ZM105.45 10.50L107.62 10.50L107.62 3.00L105.45 3.00ZM105.45 2.06L107.62 2.06L107.62 0.01L105.45 0.01ZM112.60 10.64C114.80 10.64 115.86 9.35 116.03 7.88L113.89 7.80C113.79 8.75 113.30 9.17 112.64 9.17C111.71 9.17 111.26 8.39 111.26 6.71C111.26 5.12 111.66 4.37 112.60 4.37C113.34 4.37 113.75 4.84 113.83 5.63L115.99 5.53C115.81 4.09 114.72 2.86 112.60 2.86C110.25 2.86 108.98 4.28 108.98 6.78C108.98 9.14 110.17 10.64 112.60 10.64ZM123.63 8.09L127.11 8.09L127.86 10.50L130.10 10.50L126.67 0.71L124.01 0.71L120.68 10.50L122.92 10.50ZM125.75 3.71L126.59 6.43L124.12 6.43L124.94 3.71L125.34 2.37ZM134.13 10.64C136.33 10.64 137.40 9.35 137.56 7.88L135.42 7.80C135.32 8.75 134.83 9.17 134.18 9.17C133.24 9.17 132.79 8.39 132.79 6.71C132.79 5.12 133.20 4.37 134.13 4.37C134.88 4.37 135.28 4.84 135.37 5.63L137.52 5.53C137.34 4.09 136.25 2.86 134.13 2.86C131.78 2.86 130.51 4.28 130.51 6.78C130.51 9.14 131.70 10.64 134.13 10.64ZM141.96 10.64C144.16 10.64 145.22 9.35 145.39 7.88L143.25 7.80C143.15 8.75 142.66 9.17 142.00 9.17C141.06 9.17 140.62 8.39 140.62 6.71C140.62 5.12 141.02 4.37 141.96 4.37C142.70 4.37 143.11 4.84 143.19 5.63L145.35 5.53C145.17 4.09 144.07 2.86 141.96 2.86C139.61 2.86 138.33 4.28 138.33 6.78C138.33 9.14 139.52 10.64 141.96 10.64ZM151.49 6.75C151.49 8.41 150.99 9.18 149.93 9.18C148.97 9.18 148.40 8.33 148.40 6.75C148.40 5.17 148.90 4.38 149.97 4.38C150.93 4.38 151.49 5.18 151.49 6.75ZM153.72 6.73C153.72 4.45 152.63 2.86 149.95 2.86C147.39 2.86 146.16 4.47 146.16 6.73C146.16 9.09 147.41 10.64 149.91 10.64C152.47 10.64 153.72 9.10 153.72 6.73ZM157.29 3.00L155.08 3.00L155.08 8.01C155.08 9.35 155.65 10.64 157.50 10.64C158.54 10.64 159.42 10.22 159.91 8.96C159.91 9.31 159.99 10.36 160.01 10.50L162.13 10.50C162.11 10.33 162.08 9.27 162.08 8.81L162.08 3.00L159.85 3.00L159.85 7.08C159.85 8.27 159.32 8.97 158.45 8.97C157.57 8.97 157.29 8.46 157.29 7.41ZM168.81 10.50L171.04 10.50L171.04 5.53C171.04 4.13 170.51 2.86 168.62 2.86C167.44 2.86 166.60 3.43 166.22 4.54C166.19 3.95 166.12 3.21 166.11 3.00L164.01 3.00C164.02 3.42 164.05 3.96 164.05 4.73L164.05 10.50L166.25 10.50L166.25 6.52C166.25 5.29 166.75 4.52 167.65 4.52C168.52 4.52 168.81 5.05 168.81 6.10ZM172.07 4.58L173.07 4.58L173.07 8.51C173.07 9.90 173.78 10.64 175.06 10.64C175.84 10.64 176.27 10.58 176.72 10.56L176.72 8.81L176.02 8.81C175.45 8.81 175.27 8.64 175.27 8.11L175.27 4.58L176.69 4.58L176.69 3.00L175.27 3.00L175.27 0.70L173.07 0.70L173.07 3.00L172.07 3.00ZM185.40 9.10L184.88 9.10C184.48 9.10 184.35 8.90 184.35 8.55L184.35 5.60C184.35 3.81 183.40 2.86 181.29 2.86C179.20 2.86 178.19 3.79 178.07 5.14L180.08 5.26C180.08 4.56 180.46 4.17 181.16 4.17C181.83 4.17 182.22 4.49 182.22 5.35L182.22 5.98L181.48 5.98C179.02 5.98 177.77 6.65 177.77 8.40C177.77 9.53 178.53 10.64 180.19 10.64C181.22 10.64 182.06 10.21 182.41 9.25C182.42 10.16 183.16 10.64 184.23 10.64C184.70 10.64 184.93 10.63 185.40 10.58ZM180.95 9.24C180.24 9.24 179.90 8.75 179.90 8.20C179.90 7.36 180.56 7.10 181.27 7.10L182.22 7.10L182.22 7.66C182.22 8.68 181.69 9.24 180.95 9.24ZM191.28 10.50L193.51 10.50L193.51 5.53C193.51 4.13 192.98 2.86 191.09 2.86C189.91 2.86 189.07 3.43 188.69 4.54C188.66 3.95 188.59 3.21 188.58 3.00L186.48 3.00C186.49 3.42 186.52 3.96 186.52 4.73L186.52 10.50L188.72 10.50L188.72 6.52C188.72 5.29 189.22 4.52 190.12 4.52C190.99 4.52 191.28 5.05 191.28 6.10ZM194.54 4.58L195.54 4.58L195.54 8.51C195.54 9.90 196.25 10.64 197.53 10.64C198.31 10.64 198.74 10.58 199.19 10.56L199.19 8.81L198.49 8.81C197.92 8.81 197.74 8.64 197.74 8.11L197.74 4.58L199.16 4.58L199.16 3.00L197.74 3.00L197.74 0.70L195.54 0.70L195.54 3.00L194.54 3.00ZM206.77 8.19C206.77 6.68 205.65 6.19 204.11 5.84C202.64 5.50 202.47 5.26 202.47 4.83C202.47 4.49 202.73 4.21 203.41 4.21C204.04 4.21 204.51 4.52 204.54 5.11L206.57 4.97C206.40 3.75 205.27 2.86 203.48 2.86C201.52 2.86 200.48 3.77 200.48 5.11C200.48 6.34 201.10 7.08 202.99 7.52C204.20 7.80 204.57 7.99 204.57 8.50C204.57 8.96 204.23 9.24 203.49 9.24C202.62 9.24 202.30 8.72 202.24 8.22L200.26 8.44C200.42 9.59 201.26 10.64 203.52 10.64C205.67 10.64 206.77 9.73 206.77 8.19Z"></path></g></svg>