<svg data-v-423bf9ae="" xmlns="http://www.w3.org/2000/svg" viewBox="0 0 562.011642831709 60" class="font"><!----><!----><!----><g data-v-423bf9ae="" id="7d996da6-1904-4614-aa46-97fc6107cf89" fill="black" transform="matrix(4.341534104553623,0,0,4.341534104553623,-4.515196444620869,-0.043415572292531124)"><path d="M1.04 10.50L7.80 10.50L7.80 8.71L3.28 8.71L3.28 0.71L1.04 0.71ZM14.15 6.75C14.15 8.41 13.65 9.18 12.59 9.18C11.63 9.18 11.06 8.33 11.06 6.75C11.06 5.17 11.56 4.38 12.63 4.38C13.59 4.38 14.15 5.18 14.15 6.75ZM16.38 6.73C16.38 4.45 15.29 2.86 12.61 2.86C10.05 2.86 8.82 4.47 8.82 6.73C8.82 9.09 10.07 10.64 12.57 10.64C15.13 10.64 16.38 9.10 16.38 6.73ZM22.64 10.50L24.86 10.50L24.86 5.53C24.86 4.13 24.33 2.86 22.44 2.86C21.27 2.86 20.43 3.43 20.05 4.54C20.02 3.95 19.95 3.21 19.94 3.00L17.84 3.00C17.85 3.42 17.88 3.96 17.88 4.73L17.88 10.50L20.08 10.50L20.08 6.52C20.08 5.29 20.58 4.52 21.48 4.52C22.34 4.52 22.64 5.05 22.64 6.10ZM31.43 10.50L33.66 10.50L33.66 5.53C33.66 4.13 33.12 2.86 31.23 2.86C30.06 2.86 29.22 3.43 28.84 4.54C28.81 3.95 28.74 3.21 28.73 3.00L26.63 3.00C26.64 3.42 26.67 3.96 26.67 4.73L26.67 10.50L28.87 10.50L28.87 6.52C28.87 5.29 29.37 4.52 30.27 4.52C31.14 4.52 31.43 5.05 31.43 6.10ZM42.53 9.10L42.01 9.10C41.61 9.10 41.48 8.90 41.48 8.55L41.48 5.60C41.48 3.81 40.53 2.86 38.42 2.86C36.33 2.86 35.32 3.79 35.20 5.14L37.21 5.26C37.21 4.56 37.59 4.17 38.29 4.17C38.96 4.17 39.35 4.49 39.35 5.35L39.35 5.98L38.61 5.98C36.15 5.98 34.90 6.65 34.90 8.40C34.90 9.53 35.66 10.64 37.32 10.64C38.35 10.64 39.19 10.21 39.54 9.25C39.55 10.16 40.29 10.64 41.36 10.64C41.83 10.64 42.06 10.63 42.53 10.58ZM38.08 9.24C37.37 9.24 37.03 8.75 37.03 8.20C37.03 7.36 37.69 7.10 38.40 7.10L39.35 7.10L39.35 7.66C39.35 8.68 38.82 9.24 38.08 9.24ZM48.29 4.75L48.29 2.88C48.12 2.86 47.91 2.86 47.81 2.86C46.69 2.86 46.06 3.50 45.85 4.35C45.84 3.92 45.78 3.33 45.75 3.00L43.60 3.00C43.62 3.16 43.67 4.30 43.67 4.77L43.67 10.50L45.88 10.50L45.88 6.61C45.88 5.49 46.40 4.70 47.54 4.70C47.78 4.70 47.98 4.70 48.29 4.75ZM49.62 10.50L51.79 10.50L51.79 3.00L49.62 3.00ZM49.62 2.06L51.79 2.06L51.79 0.01L49.62 0.01ZM55.93 10.49C57.20 10.49 57.99 9.97 58.34 9.09C58.32 9.23 58.32 9.41 58.32 9.52L58.32 10.61C58.32 11.98 57.76 12.45 56.87 12.45C56.06 12.45 55.68 12.03 55.57 11.42L53.41 11.63C53.61 12.82 54.50 13.83 56.80 13.83C59.23 13.83 60.52 12.77 60.52 10.56L60.52 4.77C60.52 4.21 60.55 3.23 60.58 3.00L58.49 3.00C58.46 3.23 58.41 3.81 58.38 4.27C58.04 3.35 57.15 2.86 56.07 2.86C54.12 2.86 53.14 4.24 53.14 6.65C53.14 9.03 54.01 10.49 55.93 10.49ZM58.34 6.62C58.34 8.41 57.58 8.92 56.84 8.92C55.87 8.92 55.43 8.16 55.43 6.65C55.43 5.01 55.97 4.40 56.85 4.40C57.61 4.40 58.34 4.93 58.34 6.62ZM67.27 6.75C67.27 8.41 66.77 9.18 65.70 9.18C64.75 9.18 64.18 8.33 64.18 6.75C64.18 5.17 64.68 4.38 65.74 4.38C66.71 4.38 67.27 5.18 67.27 6.75ZM69.50 6.73C69.50 4.45 68.40 2.86 65.73 2.86C63.17 2.86 61.94 4.47 61.94 6.73C61.94 9.09 63.18 10.64 65.69 10.64C68.25 10.64 69.50 9.10 69.50 6.73ZM79.51 10.64C82.21 10.64 83.36 9.20 83.90 7.78L81.91 7.08C81.63 7.91 81.02 8.88 79.49 8.88C77.49 8.88 76.79 7.49 76.79 5.57C76.79 3.61 77.53 2.32 79.45 2.32C80.78 2.32 81.58 3.09 81.82 3.89L83.76 3.37C83.29 1.81 82.08 0.57 79.39 0.57C76.02 0.57 74.52 2.51 74.52 5.57C74.52 8.51 76.05 10.64 79.51 10.64ZM93.00 3.86C93.00 2.00 91.84 0.71 89.28 0.71L85.29 0.71L85.29 10.50L87.53 10.50L87.53 7.17L89.38 7.17C91.90 7.17 93.00 5.54 93.00 3.86ZM90.73 3.89C90.73 4.80 90.22 5.40 89.10 5.40L87.53 5.40L87.53 2.45L89.04 2.45C90.16 2.45 90.73 2.95 90.73 3.89ZM95.75 8.09L99.22 8.09L99.97 10.50L102.21 10.50L98.78 0.71L96.12 0.71L92.79 10.50L95.03 10.50ZM97.86 3.71L98.70 6.43L96.24 6.43L97.05 3.71L97.45 2.37ZM115.22 3.86C115.22 2.00 114.06 0.71 111.50 0.71L107.51 0.71L107.51 10.50L109.75 10.50L109.75 7.17L111.59 7.17C114.11 7.17 115.22 5.54 115.22 3.86ZM112.95 3.89C112.95 4.80 112.43 5.40 111.31 5.40L109.75 5.40L109.75 2.45L111.26 2.45C112.38 2.45 112.95 2.95 112.95 3.89ZM114.80 10.50L116.98 10.50L116.98 8.22L114.80 8.22ZM122.63 10.64C125.33 10.64 126.48 9.20 127.02 7.78L125.03 7.08C124.75 7.91 124.14 8.88 122.61 8.88C120.61 8.88 119.91 7.49 119.91 5.57C119.91 3.61 120.65 2.32 122.57 2.32C123.90 2.32 124.70 3.09 124.94 3.89L126.88 3.37C126.41 1.81 125.20 0.57 122.51 0.57C119.14 0.57 117.64 2.51 117.64 5.57C117.64 8.51 119.17 10.64 122.63 10.64ZM128.31 10.50L130.49 10.50L130.49 8.22L128.31 8.22Z"></path></g><!----><!----></svg>